<svg id="svg" xmlns="http://www.w3.org/2000/svg" xmlns:xlink="http://www.w3.org/1999/xlink" width="30" height="30" viewBox="0, 0, 400,400"><g id="svgg"><path id="path0" d="M237.370 8.398 C 187.692 56.831,149.795 106.487,125.709 154.703 L 118.790 168.554 114.278 167.492 C 101.012 164.371,88.730 167.126,74.752 176.359 C 61.285 185.255,50.539 185.168,37.109 176.054 C 22.312 166.012,6.678 163.283,1.385 169.818 C -0.715 172.409,-0.448 178.195,1.887 180.714 C 3.902 182.888,4.387 183.049,13.041 184.403 C 17.070 185.034,19.945 186.072,23.198 188.071 C 25.693 189.605,29.647 192.037,31.984 193.476 C 48.576 203.690,67.073 202.494,86.225 189.968 C 98.999 181.614,109.175 181.715,122.473 190.329 C 142.390 203.230,160.701 203.783,178.678 192.024 C 187.331 186.364,191.731 184.514,198.016 183.896 C 208.164 182.898,212.147 175.272,205.824 168.949 L 203.055 166.180 196.212 166.623 C 187.282 167.201,182.147 169.092,171.580 175.690 C 157.491 184.488,147.062 185.264,136.565 178.297 L 134.458 176.898 140.170 165.131 C 160.594 123.061,200.187 69.939,241.411 29.297 L 250.127 20.703 264.622 35.547 C 336.919 109.587,380.339 186.679,382.545 244.922 C 386.328 344.813,282.254 412.936,192.396 369.386 C 178.555 362.678,160.966 350.189,163.816 349.093 C 164.596 348.794,166.972 347.922,169.096 347.158 C 171.219 346.393,175.614 344.029,178.861 341.904 C 187.327 336.366,191.764 334.511,198.016 333.896 C 208.164 332.898,212.147 325.272,205.824 318.949 L 203.055 316.180 196.212 316.623 C 187.282 317.201,182.147 319.092,171.580 325.690 C 156.125 335.341,147.015 335.428,133.203 326.054 C 113.613 312.759,95.196 312.855,74.752 326.359 C 61.285 335.255,50.539 335.168,37.109 326.054 C 22.312 316.012,6.678 313.283,1.385 319.818 C -0.715 322.409,-0.448 328.195,1.887 330.714 C 3.902 332.888,4.387 333.049,13.041 334.403 C 17.001 335.023,19.943 336.071,23.002 337.954 C 25.390 339.423,29.344 341.855,31.789 343.359 C 48.600 353.698,66.983 352.553,86.225 339.968 C 98.567 331.897,109.199 331.772,121.308 339.558 C 124.218 341.430,128.417 343.882,130.639 345.008 C 133.174 346.293,137.748 350.152,142.925 355.373 C 230.080 443.283,378.455 395.262,398.503 272.656 C 409.904 202.929,364.398 110.880,273.074 18.945 L 254.255 0.000 250.120 0.000 L 245.984 0.000 237.370 8.398 M4.297 217.313 C -0.350 219.868,-1.620 226.930,1.887 230.714 C 3.902 232.888,4.387 233.049,13.041 234.403 C 17.001 235.023,19.943 236.071,23.002 237.954 C 25.390 239.423,29.344 241.855,31.789 243.359 C 46.407 252.349,66.026 252.396,80.516 243.476 C 82.853 242.037,86.807 239.605,89.302 238.071 C 92.555 236.072,95.430 235.034,99.459 234.403 C 108.113 233.049,108.598 232.888,110.613 230.714 C 112.948 228.195,113.215 222.409,111.115 219.818 C 105.755 213.201,90.524 215.941,74.752 226.359 C 61.285 235.255,50.539 235.168,37.109 226.054 C 25.263 218.014,10.280 214.023,4.297 217.313 M189.063 217.454 C 183.073 218.873,180.216 220.224,171.579 225.721 C 162.533 231.478,161.491 231.900,154.001 232.850 C 147.488 233.676,144.952 235.316,143.861 239.410 C 140.377 252.486,160.399 253.987,178.678 242.021 C 195.825 230.795,204.236 230.903,222.266 242.581 C 239.349 253.646,258.018 252.937,277.073 240.497 C 284.069 235.930,287.074 234.730,293.460 233.953 C 302.116 232.899,305.843 228.813,303.940 222.461 C 301.023 212.724,284.425 214.495,266.025 226.507 C 251.821 235.779,243.040 235.310,226.144 224.375 C 215.080 217.214,201.090 214.603,189.063 217.454 M4.297 267.313 C -0.350 269.868,-1.620 276.930,1.887 280.714 C 3.902 282.888,4.387 283.049,13.041 284.403 C 17.001 285.023,19.943 286.071,23.002 287.954 C 25.390 289.423,29.344 291.855,31.789 293.359 C 44.561 301.213,60.358 302.502,63.739 295.965 C 67.214 289.244,62.351 282.842,53.736 282.794 C 49.562 282.771,43.217 280.199,37.109 276.054 C 25.263 268.014,10.280 264.023,4.297 267.313 M100.000 267.400 C 96.854 268.965,94.920 273.733,95.986 277.293 C 97.279 281.608,99.025 282.728,106.333 283.930 C 114.477 285.269,115.378 285.629,122.851 290.529 C 142.187 303.208,160.829 303.706,178.678 292.021 C 194.739 281.506,204.946 281.110,219.707 290.431 C 239.623 303.007,258.594 303.680,258.594 291.809 C 258.594 286.573,254.130 282.822,247.877 282.804 C 243.226 282.791,237.631 280.752,230.859 276.603 C 208.529 262.924,192.422 262.675,171.580 275.690 C 156.125 285.341,147.015 285.428,133.203 276.054 C 121.129 267.860,106.660 264.089,100.000 267.400 " stroke="none" fill="#1d2d44" fill-rule="evenodd"></path></g></svg>