<svg id="svg" xmlns="http://www.w3.org/2000/svg" xmlns:xlink="http://www.w3.org/1999/xlink" width="30" height="30" viewBox="0, 0, 400,400"><g id="svgg"><path id="path0" d="M137.642 28.885 C 132.703 31.982,131.874 35.512,132.166 52.202 C 132.411 66.164,132.503 66.911,134.303 69.434 C 139.470 76.679,150.354 76.293,154.614 68.714 C 156.698 65.006,157.121 37.533,155.152 33.750 C 151.988 27.668,143.391 25.279,137.642 28.885 M125.391 99.984 C 46.233 117.096,23.173 219.468,87.695 267.330 C 93.804 271.861,93.483 271.107,91.061 275.252 C 71.685 308.413,90.306 356.662,127.314 369.183 C 137.796 372.729,137.877 372.732,237.500 372.489 L 332.422 372.257 338.470 370.537 C 376.823 359.630,399.542 329.903,399.542 290.625 C 399.542 245.165,367.024 210.554,322.656 208.791 L 312.109 208.372 308.763 201.638 C 295.492 174.932,267.088 155.851,238.040 154.129 L 230.377 153.674 228.383 149.689 C 209.823 112.598,165.652 91.281,125.391 99.984 M5.189 105.389 C -0.181 108.929,-1.848 117.128,1.737 122.361 C 4.716 126.707,26.850 139.062,31.862 139.175 C 39.119 139.338,44.050 134.551,44.050 127.344 C 44.050 116.404,14.124 99.498,5.189 105.389 M261.281 110.587 C 244.476 120.234,241.413 124.553,245.629 132.656 C 250.132 141.311,256.674 141.353,271.613 132.824 C 289.125 122.827,292.010 118.763,287.694 110.172 C 283.365 101.556,276.833 101.659,261.281 110.587 M161.328 124.614 C 177.345 128.629,191.940 138.717,201.548 152.413 C 204.444 156.542,204.641 157.095,203.373 157.550 C 168.116 170.211,144.739 199.451,142.418 233.789 C 142.032 239.507,141.740 240.625,140.634 240.625 C 135.128 240.625,120.439 246.132,113.556 250.778 L 110.062 253.135 106.398 250.661 C 41.384 206.745,85.463 105.597,161.328 124.614 M243.602 179.409 C 265.344 183.928,282.677 199.468,290.966 221.875 C 295.110 233.075,297.555 234.439,310.820 232.951 C 357.093 227.760,390.063 274.484,369.708 316.406 C 362.597 331.052,347.179 343.352,331.061 347.237 C 322.609 349.275,146.459 349.468,139.145 347.448 C 91.414 334.264,100.823 265.950,150.576 264.458 C 164.968 264.027,166.303 262.239,166.671 242.891 C 167.495 199.655,202.405 170.848,243.602 179.409 M28.793 245.266 C 23.914 246.798,3.018 259.754,1.522 262.174 C -3.590 270.446,2.244 280.469,12.171 280.469 C 16.924 280.469,39.685 267.721,42.202 263.649 C 48.059 254.171,39.184 242.002,28.793 245.266 " stroke="none" fill="#1d2d44" fill-rule="evenodd"></path></g></svg>