<svg id="svg" xmlns="http://www.w3.org/2000/svg" xmlns:xlink="http://www.w3.org/1999/xlink" width="30" height="30" viewBox="0, 0, 400,400"><g id="svgg"><path id="path0" d="M193.359 1.461 C 186.186 5.916,185.935 7.031,185.955 34.231 C 185.970 55.323,186.106 57.718,187.456 60.691 C 192.118 70.959,207.882 70.959,212.544 60.691 C 214.282 56.862,214.862 13.154,213.232 8.840 C 210.399 1.344,199.853 -2.572,193.359 1.461 M60.419 56.652 C 54.842 59.995,52.398 67.654,54.993 73.658 C 56.536 77.230,89.654 109.901,92.425 110.586 C 103.367 113.292,112.914 104.110,110.121 93.566 C 109.098 89.704,78.294 57.777,73.658 55.774 C 69.652 54.043,64.165 54.407,60.419 56.652 M326.172 55.805 C 321.570 57.881,290.871 89.821,289.879 93.566 C 286.950 104.620,297.564 114.133,308.348 110.119 C 311.274 109.030,343.606 76.868,345.001 73.658 C 349.927 62.326,337.610 50.648,326.172 55.805 M183.984 100.311 C 95.693 116.329,68.781 227.934,140.405 281.040 C 205.042 328.965,296.937 284.769,300.543 204.021 C 303.347 141.239,244.923 89.255,183.984 100.311 M211.812 128.490 C 270.074 138.694,292.904 208.868,251.669 251.001 C 214.330 289.155,148.727 274.328,131.508 223.843 C 113.692 171.612,157.952 119.058,211.812 128.490 M8.594 186.813 C -2.062 191.050,-3.084 206.948,6.959 212.246 C 11.832 214.817,55.155 215.057,60.691 212.544 C 70.959 207.882,70.959 192.118,60.691 187.456 C 56.976 185.769,12.596 185.222,8.594 186.813 M339.309 187.456 C 337.253 188.390,335.225 190.173,333.841 192.264 C 329.208 199.265,331.879 209.171,339.309 212.544 C 342.282 213.894,344.677 214.030,365.769 214.045 C 390.335 214.064,391.796 213.880,395.578 210.302 C 403.136 203.151,400.740 190.388,391.160 186.768 C 386.846 185.138,343.138 185.718,339.309 187.456 M91.016 290.187 C 87.877 291.611,55.764 324.017,54.725 326.809 C 50.505 338.146,62.402 349.090,73.658 344.226 C 78.294 342.223,109.098 310.296,110.121 306.434 C 113.122 295.106,101.660 285.358,91.016 290.187 M296.486 290.293 C 289.484 293.944,286.910 302.176,290.571 309.211 C 292.475 312.871,322.133 342.358,325.711 344.149 C 337.316 349.957,349.901 336.933,343.895 325.329 C 341.916 321.504,311.341 291.027,308.348 289.894 C 305.148 288.684,299.188 288.885,296.486 290.293 M195.426 332.043 C 186.489 335.829,185.975 337.659,185.955 365.769 C 185.936 390.335,186.120 391.796,189.698 395.578 C 196.849 403.136,209.612 400.740,213.232 391.160 C 214.862 386.846,214.282 343.138,212.544 339.309 C 209.867 333.413,201.039 329.666,195.426 332.043 " stroke="none" fill="#1d2d44" fill-rule="evenodd"></path></g></svg>