<svg id="svg" xmlns="http://www.w3.org/2000/svg" xmlns:xlink="http://www.w3.org/1999/xlink" width="30" height="30" viewBox="0, 0, 400,400"><g id="svgg"><path id="path0" d="M192.777 42.993 C 163.535 46.473,137.199 78.425,142.943 103.455 C 147.022 121.228,169.730 117.347,171.989 98.491 C 174.900 74.189,201.556 63.562,219.082 79.717 C 233.683 93.175,229.529 117.005,211.074 125.656 L 206.641 127.734 108.203 128.125 C 18.527 128.481,9.557 128.631,7.422 129.809 C -4.592 136.436,-1.962 154.170,11.462 157.049 C 18.879 158.640,208.031 157.664,213.624 156.006 C 240.954 147.905,257.236 126.996,257.236 100.000 C 257.236 65.136,227.523 38.858,192.777 42.993 M328.300 101.575 C 302.146 108.428,280.085 139.202,285.884 160.740 C 290.568 178.135,312.713 174.426,314.791 155.899 C 317.322 133.332,340.512 121.839,358.586 134.193 C 376.635 146.531,374.131 173.271,354.043 182.687 L 349.609 184.766 180.469 185.156 L 11.328 185.547 8.190 187.346 C -1.544 192.927,-1.544 207.073,8.190 212.654 L 11.328 214.453 181.641 214.453 C 344.056 214.453,352.189 214.387,357.031 213.029 C 383.256 205.675,400.000 183.853,400.000 157.031 C 400.000 119.500,364.546 92.079,328.300 101.575 M10.661 243.052 C -2.032 246.034,-4.153 263.806,7.422 270.191 C 9.557 271.369,18.527 271.519,108.203 271.875 L 206.641 272.266 211.074 274.344 C 229.529 282.995,233.683 306.825,219.082 320.283 C 201.556 336.438,174.900 325.811,171.989 301.509 C 170.619 290.073,163.979 283.977,154.618 285.559 C 142.922 287.535,139.457 300.385,145.683 318.691 C 163.127 369.977,236.873 369.979,254.316 318.694 C 266.206 283.736,243.014 247.175,206.277 242.964 C 197.764 241.989,14.837 242.071,10.661 243.052 " stroke="none" fill="#1d2d44" fill-rule="evenodd"></path></g></svg>