<svg fill="#ffffff" xmlns="http://www.w3.org/2000/svg"  viewBox="0 0 50 50" width="30px" height="30px"><path d="M 25.53125 0.15625 L 24.625 1.6875 L 20.28125 9.03125 L 12.375 5.78125 L 10.875 5.15625 L 11 6.78125 L 11.75 15.3125 L 3.5625 17.21875 L 1.78125 17.65625 L 3.125 18.9375 L 8.96875 24.5 L 2.3125 31.09375 L 0.90625 32.46875 L 2.84375 32.78125 L 11.59375 34.21875 L 10.21875 43.96875 L 9.9375 46 L 11.6875 44.96875 L 19.8125 40.28125 L 24.125 48.28125 L 24.96875 49.875 L 25.875 48.28125 L 30.1875 40.625 L 37.84375 44.59375 L 39.34375 45.375 L 39.3125 43.6875 L 39.125 34.875 L 47.125 33.90625 L 48.90625 33.6875 L 47.78125 32.28125 L 42.1875 25.3125 L 47.65625 18.75 L 48.78125 17.40625 L 47.0625 17.125 L 39.25 15.78125 L 39.90625 6.96875 L 40 5.40625 L 38.53125 5.96875 L 30.34375 9.15625 L 26.375 1.71875 Z M 25.46875 4.25 L 29.03125 10.875 L 29.4375 11.65625 L 30.25 11.34375 L 37.78125 8.40625 L 37.1875 16.53125 L 37.125 17.4375 L 38.03125 17.59375 L 45 18.8125 L 40.125 24.65625 L 39.59375 25.28125 L 40.125 25.9375 L 45.09375 32.125 L 37.96875 33 L 37.09375 33.125 L 37.09375 34.03125 L 37.28125 42.0625 L 30.25 38.40625 L 29.40625 37.96875 L 28.9375 38.8125 L 25.03125 45.71875 L 21.09375 38.4375 L 20.59375 37.53125 L 19.6875 38.03125 L 12.46875 42.1875 L 13.6875 33.53125 L 13.8125 32.5625 L 12.875 32.40625 L 5.09375 31.125 L 11.09375 25.21875 L 11.84375 24.5 L 5.84375 18.75 L 13.03125 17.0625 L 13.875 16.875 L 13.78125 16 L 13.125 8.25 L 20.3125 11.21875 L 21.125 11.5625 L 21.5625 10.8125 Z M 34.625 11.625 L 33.21875 12.15625 L 25 15.40625 L 17.1875 12.28125 L 15.71875 11.6875 L 15.8125 13.25 L 16.1875 21.59375 L 11 28.1875 L 10.15625 29.28125 L 11.46875 29.75 L 19.6875 32.5625 L 24.46875 39.65625 L 25.3125 40.90625 L 26.125 39.65625 L 30.75 32.5625 L 38.96875 30.25 L 40.4375 29.84375 L 39.46875 28.6875 L 34.40625 22.34375 L 34.59375 13.125 Z M 32.5625 14.59375 L 32.40625 22.6875 L 32.40625 23.03125 L 32.625 23.3125 L 36.96875 28.75 L 29.84375 30.75 L 29.46875 30.84375 L 29.25 31.15625 L 25.28125 37.28125 L 21.125 31.125 L 20.9375 30.875 L 20.625 30.75 L 13.46875 28.3125 L 18 22.53125 L 18.21875 22.21875 L 18.1875 21.84375 L 17.875 14.71875 L 24.625 17.4375 L 25 17.5625 L 25.375 17.4375 Z M 20 21 L 20 23 L 30 23 L 30 21 Z M 20 26 L 20 28 L 30 28 L 30 26 Z"/></svg>